<mxfile host="65bd71144e">
    <diagram id="4-27yJBO5ZxlZcdEQVg5" name="ページ1">
        <mxGraphModel dx="1913" dy="702" grid="1" gridSize="10" guides="1" tooltips="1" connect="1" arrows="1" fold="1" page="1" pageScale="1" pageWidth="827" pageHeight="1169" math="0" shadow="0">
            <root>
                <mxCell id="0"/>
                <mxCell id="1" parent="0"/>
                <mxCell id="2" value="依頼元&lt;div&gt;（score?)&lt;/div&gt;" style="rounded=0;whiteSpace=wrap;html=1;" parent="1" vertex="1">
                    <mxGeometry x="-20" y="160" width="101" height="60" as="geometry"/>
                </mxCell>
                <mxCell id="3" value="後処理" style="ellipse;whiteSpace=wrap;html=1;" parent="1" vertex="1">
                    <mxGeometry x="220" y="160" width="100" height="60" as="geometry"/>
                </mxCell>
                <mxCell id="6" value="" style="endArrow=classic;html=1;entryX=0.1;entryY=0.283;entryDx=0;entryDy=0;entryPerimeter=0;exitX=1;exitY=0.25;exitDx=0;exitDy=0;edgeStyle=orthogonalEdgeStyle;curved=1;rounded=0;strokeColor=default;" parent="1" source="2" target="3" edge="1">
                    <mxGeometry width="50" height="50" relative="1" as="geometry">
                        <mxPoint x="210" y="200" as="sourcePoint"/>
                        <mxPoint x="260" y="150" as="targetPoint"/>
                    </mxGeometry>
                </mxCell>
                <mxCell id="7" value="ID(スコアのPK）" style="text;html=1;align=center;verticalAlign=middle;whiteSpace=wrap;rounded=0;" parent="1" vertex="1">
                    <mxGeometry x="100" y="140" width="100" height="30" as="geometry"/>
                </mxCell>
                <mxCell id="8" value="SCORE" style="shape=partialRectangle;whiteSpace=wrap;html=1;left=0;right=0;fillColor=none;" parent="1" vertex="1">
                    <mxGeometry x="450" y="10" width="100" height="40" as="geometry"/>
                </mxCell>
                <mxCell id="9" value="" style="endArrow=classic;html=1;exitX=0.34;exitY=0.006;exitDx=0;exitDy=0;edgeStyle=orthogonalEdgeStyle;curved=1;rounded=0;strokeColor=default;exitPerimeter=0;entryX=0.3;entryY=0.961;entryDx=0;entryDy=0;entryPerimeter=0;" parent="1" source="3" target="25" edge="1">
                    <mxGeometry width="50" height="50" relative="1" as="geometry">
                        <mxPoint x="260" y="108" as="sourcePoint"/>
                        <mxPoint x="320" y="140" as="targetPoint"/>
                        <Array as="points">
                            <mxPoint x="254" y="120"/>
                            <mxPoint x="250" y="120"/>
                            <mxPoint x="250" y="78"/>
                        </Array>
                    </mxGeometry>
                </mxCell>
                <mxCell id="12" value="ID" style="edgeLabel;html=1;align=center;verticalAlign=middle;resizable=0;points=[];" parent="9" vertex="1" connectable="0">
                    <mxGeometry x="0.239" y="1" relative="1" as="geometry">
                        <mxPoint x="-9" y="2" as="offset"/>
                    </mxGeometry>
                </mxCell>
                <mxCell id="14" value="" style="endArrow=classic;html=1;exitX=0;exitY=0.75;exitDx=0;exitDy=0;edgeStyle=orthogonalEdgeStyle;curved=1;rounded=0;strokeColor=default;entryX=0.987;entryY=0.661;entryDx=0;entryDy=0;entryPerimeter=0;" parent="1" source="8" target="25" edge="1">
                    <mxGeometry width="50" height="50" relative="1" as="geometry">
                        <mxPoint x="264" y="170" as="sourcePoint"/>
                        <mxPoint x="302" y="105" as="targetPoint"/>
                    </mxGeometry>
                </mxCell>
                <mxCell id="15" value="スコア情報&lt;div&gt;・ユーザーID&lt;/div&gt;&lt;div&gt;・日付&lt;/div&gt;&lt;div&gt;・スコア&lt;/div&gt;" style="edgeLabel;html=1;align=left;verticalAlign=middle;resizable=0;points=[];" parent="14" vertex="1" connectable="0">
                    <mxGeometry x="0.239" y="1" relative="1" as="geometry">
                        <mxPoint x="1" y="19" as="offset"/>
                    </mxGeometry>
                </mxCell>
                <mxCell id="16" value="後処理ルール&lt;div&gt;確認&lt;/div&gt;" style="ellipse;whiteSpace=wrap;html=1;" parent="1" vertex="1">
                    <mxGeometry x="420" y="140" width="100" height="60" as="geometry"/>
                </mxCell>
                <mxCell id="17" value="USERS" style="shape=partialRectangle;whiteSpace=wrap;html=1;left=0;right=0;fillColor=none;" parent="1" vertex="1">
                    <mxGeometry x="610" y="105" width="100" height="40" as="geometry"/>
                </mxCell>
                <mxCell id="18" value="" style="endArrow=classic;html=1;exitX=1;exitY=0;exitDx=0;exitDy=0;edgeStyle=orthogonalEdgeStyle;curved=1;rounded=0;strokeColor=default;entryX=0;entryY=0.25;entryDx=0;entryDy=0;" parent="1" source="16" target="17" edge="1">
                    <mxGeometry width="50" height="50" relative="1" as="geometry">
                        <mxPoint x="570" y="179.95" as="sourcePoint"/>
                        <mxPoint x="586" y="94.95" as="targetPoint"/>
                        <Array as="points">
                            <mxPoint x="505" y="120"/>
                            <mxPoint x="587" y="120"/>
                            <mxPoint x="587" y="115"/>
                        </Array>
                    </mxGeometry>
                </mxCell>
                <mxCell id="19" value="ユーザーID" style="edgeLabel;html=1;align=center;verticalAlign=middle;resizable=0;points=[];" parent="18" vertex="1" connectable="0">
                    <mxGeometry x="0.239" y="1" relative="1" as="geometry">
                        <mxPoint x="-41" y="-9" as="offset"/>
                    </mxGeometry>
                </mxCell>
                <mxCell id="22" value="" style="endArrow=classic;html=1;exitX=0.75;exitY=1;exitDx=0;exitDy=0;edgeStyle=orthogonalEdgeStyle;curved=1;rounded=0;strokeColor=default;" parent="1" edge="1">
                    <mxGeometry width="50" height="50" relative="1" as="geometry">
                        <mxPoint x="295" y="78" as="sourcePoint"/>
                        <mxPoint x="281" y="160" as="targetPoint"/>
                    </mxGeometry>
                </mxCell>
                <mxCell id="23" value="スコア情報&lt;div&gt;&lt;br&gt;&lt;/div&gt;" style="edgeLabel;html=1;align=left;verticalAlign=middle;resizable=0;points=[];" parent="22" vertex="1" connectable="0">
                    <mxGeometry x="0.239" y="1" relative="1" as="geometry">
                        <mxPoint x="18" y="-24" as="offset"/>
                    </mxGeometry>
                </mxCell>
                <mxCell id="25" value="スコア取得" style="ellipse;whiteSpace=wrap;html=1;" parent="1" vertex="1">
                    <mxGeometry x="240" y="20" width="100" height="60" as="geometry"/>
                </mxCell>
                <mxCell id="26" value="" style="endArrow=classic;html=1;edgeStyle=orthogonalEdgeStyle;curved=1;rounded=0;strokeColor=default;entryX=0;entryY=0.25;entryDx=0;entryDy=0;exitX=0.97;exitY=0.317;exitDx=0;exitDy=0;exitPerimeter=0;" parent="1" source="25" target="8" edge="1">
                    <mxGeometry width="50" height="50" relative="1" as="geometry">
                        <mxPoint x="350" y="40" as="sourcePoint"/>
                        <mxPoint x="349" y="70" as="targetPoint"/>
                    </mxGeometry>
                </mxCell>
                <mxCell id="28" value="ID" style="edgeLabel;html=1;align=center;verticalAlign=middle;resizable=0;points=[];" parent="26" vertex="1" connectable="0">
                    <mxGeometry x="-0.0606" y="-3" relative="1" as="geometry">
                        <mxPoint x="-13" y="-10" as="offset"/>
                    </mxGeometry>
                </mxCell>
                <mxCell id="31" value="" style="endArrow=classic;html=1;exitX=0.993;exitY=0.361;exitDx=0;exitDy=0;edgeStyle=orthogonalEdgeStyle;curved=1;rounded=0;strokeColor=default;entryX=0;entryY=0.5;entryDx=0;entryDy=0;exitPerimeter=0;" parent="1" source="3" target="16" edge="1">
                    <mxGeometry width="50" height="50" relative="1" as="geometry">
                        <mxPoint x="330" y="88" as="sourcePoint"/>
                        <mxPoint x="316" y="182" as="targetPoint"/>
                    </mxGeometry>
                </mxCell>
                <mxCell id="32" value="&lt;span style=&quot;background-color: light-dark(#ffffff, var(--ge-dark-color, #121212));&quot;&gt;ユーザーID&lt;/span&gt;" style="edgeLabel;html=1;align=left;verticalAlign=middle;resizable=0;points=[];" parent="31" vertex="1" connectable="0">
                    <mxGeometry x="0.239" y="1" relative="1" as="geometry">
                        <mxPoint x="-28" y="-9" as="offset"/>
                    </mxGeometry>
                </mxCell>
                <mxCell id="33" value="" style="endArrow=classic;html=1;edgeStyle=orthogonalEdgeStyle;curved=1;rounded=0;strokeColor=default;entryX=1;entryY=0.328;entryDx=0;entryDy=0;entryPerimeter=0;exitX=0;exitY=0.75;exitDx=0;exitDy=0;" parent="1" source="17" target="16" edge="1">
                    <mxGeometry width="50" height="50" relative="1" as="geometry">
                        <mxPoint x="630" y="110" as="sourcePoint"/>
                        <mxPoint x="596" y="104.95" as="targetPoint"/>
                    </mxGeometry>
                </mxCell>
                <mxCell id="35" value="企業ID" style="edgeLabel;html=1;align=center;verticalAlign=middle;resizable=0;points=[];" parent="33" vertex="1" connectable="0">
                    <mxGeometry x="-0.1396" relative="1" as="geometry">
                        <mxPoint x="15" y="21" as="offset"/>
                    </mxGeometry>
                </mxCell>
                <mxCell id="36" value="後処理&lt;br&gt;&lt;div&gt;ルール&lt;/div&gt;" style="shape=partialRectangle;whiteSpace=wrap;html=1;left=0;right=0;fillColor=none;" parent="1" vertex="1">
                    <mxGeometry x="610" y="210" width="100" height="40" as="geometry"/>
                </mxCell>
                <mxCell id="37" value="" style="endArrow=classic;html=1;exitX=1;exitY=0.5;exitDx=0;exitDy=0;edgeStyle=orthogonalEdgeStyle;curved=1;rounded=0;strokeColor=default;entryX=0;entryY=0.25;entryDx=0;entryDy=0;" parent="1" source="16" target="36" edge="1">
                    <mxGeometry width="50" height="50" relative="1" as="geometry">
                        <mxPoint x="515" y="159" as="sourcePoint"/>
                        <mxPoint x="598" y="91" as="targetPoint"/>
                        <Array as="points">
                            <mxPoint x="520" y="180"/>
                            <mxPoint x="580" y="180"/>
                            <mxPoint x="580" y="210"/>
                            <mxPoint x="610" y="210"/>
                        </Array>
                    </mxGeometry>
                </mxCell>
                <mxCell id="38" value="企業ID" style="edgeLabel;html=1;align=center;verticalAlign=middle;resizable=0;points=[];" parent="37" vertex="1" connectable="0">
                    <mxGeometry x="0.239" y="1" relative="1" as="geometry">
                        <mxPoint x="-31" y="-7" as="offset"/>
                    </mxGeometry>
                </mxCell>
                <mxCell id="39" value="" style="endArrow=classic;html=1;exitX=0;exitY=0.75;exitDx=0;exitDy=0;edgeStyle=orthogonalEdgeStyle;curved=1;rounded=0;strokeColor=default;entryX=0.94;entryY=0.761;entryDx=0;entryDy=0;entryPerimeter=0;" parent="1" source="36" target="16" edge="1">
                    <mxGeometry width="50" height="50" relative="1" as="geometry">
                        <mxPoint x="530" y="180" as="sourcePoint"/>
                        <mxPoint x="640" y="170" as="targetPoint"/>
                    </mxGeometry>
                </mxCell>
                <mxCell id="40" value="ルール番号&lt;div&gt;エンドポイント等&lt;/div&gt;" style="edgeLabel;html=1;align=center;verticalAlign=middle;resizable=0;points=[];" parent="39" vertex="1" connectable="0">
                    <mxGeometry x="0.239" y="1" relative="1" as="geometry">
                        <mxPoint x="29" y="13" as="offset"/>
                    </mxGeometry>
                </mxCell>
                <mxCell id="41" value="" style="endArrow=classic;html=1;edgeStyle=orthogonalEdgeStyle;curved=1;rounded=0;strokeColor=default;entryX=0.993;entryY=0.694;entryDx=0;entryDy=0;entryPerimeter=0;" parent="1" target="3" edge="1">
                    <mxGeometry width="50" height="50" relative="1" as="geometry">
                        <mxPoint x="430" y="190" as="sourcePoint"/>
                        <mxPoint x="430" y="180" as="targetPoint"/>
                    </mxGeometry>
                </mxCell>
                <mxCell id="43" value="&lt;div&gt;ルール番号&lt;/div&gt;エンドポイント等" style="edgeLabel;html=1;align=center;verticalAlign=middle;resizable=0;points=[];labelBackgroundColor=none;" parent="1" vertex="1" connectable="0">
                    <mxGeometry x="411.9993473368775" y="225.00062273783982" as="geometry">
                        <mxPoint x="-7" y="-18" as="offset"/>
                    </mxGeometry>
                </mxCell>
                <mxCell id="45" value="&lt;div&gt;ルール１&lt;/div&gt;WebAPI宛&lt;div&gt;結果送信&lt;/div&gt;" style="ellipse;whiteSpace=wrap;html=1;" parent="1" vertex="1">
                    <mxGeometry x="230" y="270" width="100" height="60" as="geometry"/>
                </mxCell>
                <mxCell id="46" value="" style="endArrow=classic;html=1;edgeStyle=orthogonalEdgeStyle;curved=1;rounded=0;strokeColor=default;entryX=0.68;entryY=0;entryDx=0;entryDy=0;entryPerimeter=0;exitX=0.78;exitY=0.917;exitDx=0;exitDy=0;exitPerimeter=0;" parent="1" source="3" target="45" edge="1">
                    <mxGeometry width="50" height="50" relative="1" as="geometry">
                        <mxPoint x="345.5" y="220" as="sourcePoint"/>
                        <mxPoint x="234.5" y="232" as="targetPoint"/>
                    </mxGeometry>
                </mxCell>
                <mxCell id="48" value="&lt;div&gt;エンドポイント等&lt;/div&gt;&lt;div&gt;スコア情報&lt;/div&gt;" style="edgeLabel;html=1;align=center;verticalAlign=middle;resizable=0;points=[];" parent="46" vertex="1" connectable="0">
                    <mxGeometry x="0.7226" y="6" relative="1" as="geometry">
                        <mxPoint x="46" y="-12" as="offset"/>
                    </mxGeometry>
                </mxCell>
                <mxCell id="49" value="" style="endArrow=classic;html=1;edgeStyle=orthogonalEdgeStyle;curved=1;rounded=0;strokeColor=default;entryX=0.37;entryY=1;entryDx=0;entryDy=0;entryPerimeter=0;exitX=0.27;exitY=0.05;exitDx=0;exitDy=0;exitPerimeter=0;" parent="1" source="45" target="3" edge="1">
                    <mxGeometry width="50" height="50" relative="1" as="geometry">
                        <mxPoint x="308" y="225" as="sourcePoint"/>
                        <mxPoint x="400" y="290" as="targetPoint"/>
                    </mxGeometry>
                </mxCell>
                <mxCell id="50" value="結果" style="edgeLabel;html=1;align=center;verticalAlign=middle;resizable=0;points=[];" parent="49" vertex="1" connectable="0">
                    <mxGeometry x="0.7226" y="6" relative="1" as="geometry">
                        <mxPoint x="-11" y="23" as="offset"/>
                    </mxGeometry>
                </mxCell>
                <mxCell id="51" value="" style="endArrow=classic;html=1;edgeStyle=orthogonalEdgeStyle;curved=1;rounded=0;strokeColor=default;entryX=1;entryY=0.75;entryDx=0;entryDy=0;exitX=0;exitY=1;exitDx=0;exitDy=0;" parent="1" source="3" target="2" edge="1">
                    <mxGeometry width="50" height="50" relative="1" as="geometry">
                        <mxPoint x="380" y="305" as="sourcePoint"/>
                        <mxPoint x="290" y="230" as="targetPoint"/>
                    </mxGeometry>
                </mxCell>
                <mxCell id="52" value="結果" style="edgeLabel;html=1;align=center;verticalAlign=middle;resizable=0;points=[];" parent="51" vertex="1" connectable="0">
                    <mxGeometry x="0.7226" y="6" relative="1" as="geometry">
                        <mxPoint x="26" y="9" as="offset"/>
                    </mxGeometry>
                </mxCell>
                <mxCell id="54" value="" style="endArrow=classic;html=1;exitX=1.01;exitY=0.383;exitDx=0;exitDy=0;edgeStyle=orthogonalEdgeStyle;curved=1;rounded=0;strokeColor=default;exitPerimeter=0;entryX=0;entryY=0.25;entryDx=0;entryDy=0;" parent="1" source="45" edge="1">
                    <mxGeometry width="50" height="50" relative="1" as="geometry">
                        <mxPoint x="360" y="295" as="sourcePoint"/>
                        <mxPoint x="550" y="290" as="targetPoint"/>
                    </mxGeometry>
                </mxCell>
                <mxCell id="57" value="" style="endArrow=classic;html=1;exitX=0;exitY=0.5;exitDx=0;exitDy=0;edgeStyle=orthogonalEdgeStyle;curved=1;rounded=0;strokeColor=default;entryX=1;entryY=0.5;entryDx=0;entryDy=0;" parent="1" target="45" edge="1">
                    <mxGeometry width="50" height="50" relative="1" as="geometry">
                        <mxPoint x="550" y="300" as="sourcePoint"/>
                        <mxPoint x="585" y="410" as="targetPoint"/>
                    </mxGeometry>
                </mxCell>
                <mxCell id="58" value="ID" style="edgeLabel;html=1;align=center;verticalAlign=middle;resizable=0;points=[];" parent="57" vertex="1" connectable="0">
                    <mxGeometry x="0.3048" y="-2" relative="1" as="geometry">
                        <mxPoint x="34" y="-18" as="offset"/>
                    </mxGeometry>
                </mxCell>
                <mxCell id="60" value="送信済フラグ" style="edgeLabel;html=1;align=center;verticalAlign=middle;resizable=0;points=[];" parent="57" vertex="1" connectable="0">
                    <mxGeometry x="-0.05" y="30" relative="1" as="geometry">
                        <mxPoint x="49" y="-20" as="offset"/>
                    </mxGeometry>
                </mxCell>
                <mxCell id="61" value="結果送信" style="ellipse;whiteSpace=wrap;html=1;" parent="1" vertex="1">
                    <mxGeometry x="230" y="380" width="100" height="60" as="geometry"/>
                </mxCell>
                <mxCell id="62" value="送信先&lt;div&gt;API&lt;/div&gt;" style="rounded=0;whiteSpace=wrap;html=1;" parent="1" vertex="1">
                    <mxGeometry x="219" y="490" width="101" height="60" as="geometry"/>
                </mxCell>
                <mxCell id="63" value="" style="endArrow=classic;html=1;exitX=1;exitY=1;exitDx=0;exitDy=0;edgeStyle=orthogonalEdgeStyle;curved=1;rounded=0;strokeColor=default;entryX=0.41;entryY=-0.017;entryDx=0;entryDy=0;entryPerimeter=0;" parent="1" source="45" target="61" edge="1">
                    <mxGeometry width="50" height="50" relative="1" as="geometry">
                        <mxPoint x="610" y="420" as="sourcePoint"/>
                        <mxPoint x="340" y="310" as="targetPoint"/>
                    </mxGeometry>
                </mxCell>
                <mxCell id="66" value="エンドポイント等&lt;br&gt;&lt;div&gt;スコア情報&lt;/div&gt;" style="edgeLabel;html=1;align=center;verticalAlign=middle;resizable=0;points=[];labelBackgroundColor=none;" parent="63" vertex="1" connectable="0">
                    <mxGeometry x="0.5304" y="-11" relative="1" as="geometry">
                        <mxPoint x="80" y="15" as="offset"/>
                    </mxGeometry>
                </mxCell>
                <mxCell id="67" value="" style="endArrow=classic;html=1;exitX=0.62;exitY=0.967;exitDx=0;exitDy=0;edgeStyle=orthogonalEdgeStyle;curved=1;rounded=0;strokeColor=default;entryX=0.75;entryY=0;entryDx=0;entryDy=0;exitPerimeter=0;" parent="1" source="61" target="62" edge="1">
                    <mxGeometry width="50" height="50" relative="1" as="geometry">
                        <mxPoint x="420" y="430" as="sourcePoint"/>
                        <mxPoint x="496" y="478" as="targetPoint"/>
                    </mxGeometry>
                </mxCell>
                <mxCell id="69" value="&lt;span style=&quot;background-color: light-dark(#ffffff, var(--ge-dark-color, #121212));&quot;&gt;スコア情報&lt;/span&gt;" style="edgeLabel;html=1;align=center;verticalAlign=middle;resizable=0;points=[];" parent="67" vertex="1" connectable="0">
                    <mxGeometry x="0.5304" y="-11" relative="1" as="geometry">
                        <mxPoint x="40" y="-14" as="offset"/>
                    </mxGeometry>
                </mxCell>
                <mxCell id="70" value="" style="endArrow=classic;html=1;exitX=0.25;exitY=0;exitDx=0;exitDy=0;edgeStyle=orthogonalEdgeStyle;curved=1;rounded=0;strokeColor=default;entryX=0.37;entryY=1.017;entryDx=0;entryDy=0;entryPerimeter=0;" parent="1" source="62" target="61" edge="1">
                    <mxGeometry width="50" height="50" relative="1" as="geometry">
                        <mxPoint x="422" y="438" as="sourcePoint"/>
                        <mxPoint x="436" y="490" as="targetPoint"/>
                    </mxGeometry>
                </mxCell>
                <mxCell id="72" value="&lt;span style=&quot;background-color: light-dark(#ffffff, var(--ge-dark-color, #121212));&quot;&gt;送信結果&lt;/span&gt;" style="edgeLabel;html=1;align=center;verticalAlign=middle;resizable=0;points=[];" parent="70" vertex="1" connectable="0">
                    <mxGeometry x="0.5304" y="-11" relative="1" as="geometry">
                        <mxPoint x="-48" y="4" as="offset"/>
                    </mxGeometry>
                </mxCell>
                <mxCell id="74" value="" style="endArrow=classic;html=1;exitX=0.02;exitY=0.7;exitDx=0;exitDy=0;edgeStyle=orthogonalEdgeStyle;curved=1;rounded=0;strokeColor=default;exitPerimeter=0;entryX=0.5;entryY=0;entryDx=0;entryDy=0;" parent="1" source="45" target="82" edge="1">
                    <mxGeometry width="50" height="50" relative="1" as="geometry">
                        <mxPoint x="260" y="325" as="sourcePoint"/>
                        <mxPoint x="625" y="445" as="targetPoint"/>
                    </mxGeometry>
                </mxCell>
                <mxCell id="84" value="ID&lt;div&gt;送信結果&lt;/div&gt;" style="edgeLabel;html=1;align=center;verticalAlign=middle;resizable=0;points=[];" parent="74" vertex="1" connectable="0">
                    <mxGeometry x="-0.2027" relative="1" as="geometry">
                        <mxPoint x="22" y="38" as="offset"/>
                    </mxGeometry>
                </mxCell>
                <mxCell id="76" value="" style="endArrow=classic;html=1;exitX=0.25;exitY=0;exitDx=0;exitDy=0;edgeStyle=orthogonalEdgeStyle;curved=1;rounded=0;strokeColor=default;entryX=0;entryY=0.333;entryDx=0;entryDy=0;entryPerimeter=0;" parent="1" source="82" target="45" edge="1">
                    <mxGeometry width="50" height="50" relative="1" as="geometry">
                        <mxPoint x="610" y="420" as="sourcePoint"/>
                        <mxPoint x="340" y="310" as="targetPoint"/>
                    </mxGeometry>
                </mxCell>
                <mxCell id="83" value="リターンコード" style="edgeLabel;html=1;align=center;verticalAlign=middle;resizable=0;points=[];" parent="76" vertex="1" connectable="0">
                    <mxGeometry x="-0.2887" y="-5" relative="1" as="geometry">
                        <mxPoint x="-10" y="-17" as="offset"/>
                    </mxGeometry>
                </mxCell>
                <mxCell id="79" value="" style="endArrow=classic;html=1;exitX=0;exitY=0;exitDx=0;exitDy=0;edgeStyle=orthogonalEdgeStyle;curved=1;rounded=0;strokeColor=default;entryX=0.59;entryY=0.933;entryDx=0;entryDy=0;entryPerimeter=0;" parent="1" source="61" target="45" edge="1">
                    <mxGeometry width="50" height="50" relative="1" as="geometry">
                        <mxPoint x="325" y="331" as="sourcePoint"/>
                        <mxPoint x="401" y="379" as="targetPoint"/>
                    </mxGeometry>
                </mxCell>
                <mxCell id="81" value="送信結果" style="edgeLabel;html=1;align=center;verticalAlign=middle;resizable=0;points=[];" parent="79" vertex="1" connectable="0">
                    <mxGeometry x="0.5304" y="-11" relative="1" as="geometry">
                        <mxPoint x="-50" y="-11" as="offset"/>
                    </mxGeometry>
                </mxCell>
                <mxCell id="82" value="送信結果" style="shape=partialRectangle;whiteSpace=wrap;html=1;left=0;right=0;fillColor=none;" parent="1" vertex="1">
                    <mxGeometry x="100" y="390" width="100" height="40" as="geometry"/>
                </mxCell>
                <mxCell id="85" value="USERS" style="shape=partialRectangle;whiteSpace=wrap;html=1;left=0;right=0;fillColor=none;" vertex="1" parent="1">
                    <mxGeometry x="460" y="400" width="100" height="40" as="geometry"/>
                </mxCell>
                <mxCell id="86" value="" style="endArrow=classic;html=1;exitX=0.96;exitY=0.667;exitDx=0;exitDy=0;edgeStyle=orthogonalEdgeStyle;curved=1;rounded=0;strokeColor=default;exitPerimeter=0;entryX=0.64;entryY=-0.075;entryDx=0;entryDy=0;entryPerimeter=0;" edge="1" parent="1" source="45" target="85">
                    <mxGeometry width="50" height="50" relative="1" as="geometry">
                        <mxPoint x="341" y="303" as="sourcePoint"/>
                        <mxPoint x="635" y="340" as="targetPoint"/>
                    </mxGeometry>
                </mxCell>
                <mxCell id="88" value="" style="endArrow=classic;html=1;exitX=0.5;exitY=0;exitDx=0;exitDy=0;edgeStyle=orthogonalEdgeStyle;curved=1;rounded=0;strokeColor=default;entryX=1;entryY=0.75;entryDx=0;entryDy=0;entryPerimeter=0;" edge="1" parent="1" source="85" target="45">
                    <mxGeometry width="50" height="50" relative="1" as="geometry">
                        <mxPoint x="610" y="340" as="sourcePoint"/>
                        <mxPoint x="340" y="310" as="targetPoint"/>
                    </mxGeometry>
                </mxCell>
                <mxCell id="89" value="ID" style="edgeLabel;html=1;align=center;verticalAlign=middle;resizable=0;points=[];" vertex="1" connectable="0" parent="88">
                    <mxGeometry x="0.3048" y="-2" relative="1" as="geometry">
                        <mxPoint x="108" y="47" as="offset"/>
                    </mxGeometry>
                </mxCell>
                <mxCell id="90" value="ログインID" style="edgeLabel;html=1;align=center;verticalAlign=middle;resizable=0;points=[];" vertex="1" connectable="0" parent="88">
                    <mxGeometry x="-0.05" y="30" relative="1" as="geometry">
                        <mxPoint x="-27" y="15" as="offset"/>
                    </mxGeometry>
                </mxCell>
                <mxCell id="92" value="送信結果" style="shape=partialRectangle;whiteSpace=wrap;html=1;left=0;right=0;fillColor=none;" vertex="1" parent="1">
                    <mxGeometry x="550" y="280" width="100" height="40" as="geometry"/>
                </mxCell>
            </root>
        </mxGraphModel>
    </diagram>
</mxfile>